<svg width="84" height="84" viewBox="0 0 84 84" fill="none" xmlns="http://www.w3.org/2000/svg">
<path d="M28.309 64.2964C28.2877 64.1914 28.2565 64.0881 28.2155 63.988C28.1745 63.8895 28.1236 63.7944 28.0645 63.7058C28.0055 63.6156 27.9366 63.5319 27.8611 63.4564C27.7856 63.3809 27.702 63.312 27.6117 63.253C27.5231 63.1939 27.428 63.1431 27.3279 63.102C27.2295 63.061 27.1261 63.0282 27.0211 63.0085C26.8095 62.9659 26.5913 62.9659 26.3813 63.0085C26.2763 63.0282 26.1729 63.061 26.0728 63.102C25.9744 63.1431 25.8792 63.1939 25.7906 63.253C25.7004 63.312 25.6167 63.3809 25.5412 63.4564C25.4658 63.5319 25.3969 63.6156 25.3378 63.7058C25.2771 63.7944 25.2279 63.8895 25.1869 63.988C25.1459 64.0881 25.113 64.1914 25.0934 64.2964C25.072 64.4014 25.0605 64.5097 25.0605 64.6163C25.0605 64.723 25.072 64.8313 25.0934 64.9363C25.113 65.0413 25.1459 65.1446 25.1869 65.2431C25.2279 65.3431 25.2771 65.4383 25.3378 65.5269C25.3969 65.6171 25.4658 65.7008 25.5412 65.7763C25.6167 65.8517 25.7004 65.9206 25.7906 65.9797C25.8792 66.0389 25.9744 66.0898 26.0728 66.1308C26.1729 66.1718 26.2763 66.2046 26.3813 66.2243C26.4863 66.2456 26.5945 66.2571 26.7012 66.2571C26.8078 66.2571 26.9161 66.2456 27.0211 66.2243C27.1261 66.2046 27.2295 66.1718 27.3279 66.1308C27.428 66.0898 27.5231 66.0387 27.6117 65.9797C27.702 65.9206 27.7856 65.8517 27.8611 65.7763C27.9366 65.7008 28.0055 65.6171 28.0645 65.5269C28.1236 65.4383 28.1745 65.3431 28.2155 65.2431C28.2565 65.1446 28.2877 65.0413 28.309 64.9363C28.3303 64.8313 28.3418 64.723 28.3418 64.6163C28.3418 64.5097 28.3303 64.4014 28.309 64.2964Z" fill="black" fill-opacity="0.05"/>
<path d="M75.4676 64.8017C75.4612 64.7853 75.4547 64.7691 75.4478 64.753C73.9377 61.2196 70.3963 59.9137 66.2051 61.3451L54.7752 64.5059C54.1144 62.5047 52.466 60.8017 50.1354 59.9368C50.1209 59.9316 50.1065 59.9263 50.0919 59.9214L37.5278 55.6571C36.4821 54.3054 33.2064 50.8466 27.0733 50.8466C22.7871 50.8466 18.9955 53.7869 16.8263 56.9919H1.64063C0.734508 56.9919 0 57.7264 0 58.6325V79.317C0 80.2231 0.734508 80.9576 1.64063 80.9576H11.3953C12.3014 80.9576 13.0359 80.2231 13.0359 79.317V77.9005H17.6105C18.5166 77.9005 19.2511 77.166 19.2511 76.2599V75.7877C21.9178 76.0203 22.7948 76.5261 25.244 77.9384C27.1274 79.0245 29.9741 80.6659 35.1004 82.9708C35.1241 82.9815 35.1483 82.9917 35.1724 83.0012C36.1563 83.3882 38.0796 83.9962 40.4508 83.9962C42.1012 83.9962 43.9691 83.7014 45.8863 82.8324L71.1505 73.7866C71.1954 73.7706 71.2397 73.7525 71.283 73.7325C73.6975 72.6216 77.2956 69.4908 75.4676 64.8017ZM9.75467 77.6762H3.28125V60.273H9.75467V77.6762ZM15.9698 74.6191H13.0359V60.273H15.9698V74.6191ZM69.972 70.7231L44.7192 79.7647C44.697 79.7726 44.667 79.7844 44.6452 79.7933C44.623 79.8023 44.6009 79.8118 44.5791 79.8218C41.0621 81.4382 37.719 80.4705 36.4088 79.9611C31.457 77.733 28.8141 76.209 26.8831 75.0955C24.1984 73.5474 22.9048 72.8013 19.2511 72.4996V59.2856C20.8062 56.7368 23.822 54.1277 27.0734 54.1277C32.6493 54.1277 35.0119 57.7543 35.1048 57.9006C35.3051 58.2264 35.613 58.472 35.9751 58.5949L49.014 63.0204C51.0965 63.8019 52.197 65.5853 51.6912 67.3637C51.4577 68.185 50.9183 68.8662 50.1724 69.2818C49.433 69.6938 48.5783 69.7956 47.7635 69.5702L33.0647 64.9122C32.2004 64.6383 31.2787 65.1167 31.005 65.9805C30.7312 66.8443 31.2096 67.7664 32.0734 68.0402L46.7978 72.7063C46.8134 72.7112 46.829 72.716 46.8448 72.7204C47.4326 72.8876 48.0311 72.9703 48.626 72.9703C49.715 72.9703 50.7921 72.6928 51.7696 72.1481C53.2811 71.306 54.3741 69.9256 54.8472 68.2612C54.885 68.1283 54.9184 67.9954 54.9475 67.8625L67.2658 64.45C69.0449 63.8423 71.3803 63.6233 72.4202 66.0181C73.4964 68.8296 70.6991 70.3763 69.972 70.7231Z" fill="black" fill-opacity="0.05"/>
<path d="M58.9083 21.5813C58.887 21.4763 58.8558 21.3729 58.8131 21.2729C58.7721 21.1744 58.7229 21.0793 58.6622 20.9907C58.6031 20.9004 58.5342 20.8168 58.4588 20.7413C58.3833 20.6658 58.2996 20.5969 58.2094 20.5379C58.1208 20.4788 58.0256 20.4279 57.9272 20.3869C57.8271 20.3459 57.7237 20.3131 57.6204 20.2934C57.4087 20.2507 57.1905 20.2507 56.9789 20.2934C56.8739 20.3131 56.7705 20.3459 56.6721 20.3869C56.572 20.4279 56.4769 20.4788 56.3883 20.5379C56.298 20.5969 56.2144 20.6658 56.1389 20.7413C56.0634 20.8168 55.9945 20.9004 55.9355 20.9907C55.8764 21.0793 55.8255 21.1744 55.7845 21.2729C55.7435 21.3729 55.7107 21.4763 55.691 21.5813C55.6697 21.6863 55.6582 21.7946 55.6582 21.9012C55.6582 22.0079 55.6697 22.1161 55.691 22.2211C55.7107 22.3261 55.7435 22.4295 55.7845 22.5279C55.8255 22.628 55.8764 22.7232 55.9355 22.8118C55.9945 22.902 56.0634 22.9857 56.1389 23.0611C56.2144 23.1366 56.298 23.2055 56.3883 23.2646C56.4769 23.3236 56.572 23.3745 56.6721 23.4155C56.7705 23.4565 56.8739 23.4877 56.9789 23.509C57.0839 23.5304 57.1922 23.5418 57.2988 23.5418C57.4055 23.5418 57.5137 23.5304 57.6204 23.509C57.7237 23.4877 57.8271 23.4565 57.9272 23.4155C58.0256 23.3745 58.1208 23.3236 58.2094 23.2646C58.2996 23.2055 58.3833 23.1366 58.4588 23.0611C58.5342 22.9857 58.6031 22.902 58.6622 22.8118C58.7229 22.7232 58.7721 22.628 58.8131 22.5279C58.8558 22.4295 58.887 22.3261 58.9083 22.2211C58.9296 22.1161 58.9395 22.0079 58.9395 21.9012C58.9395 21.7946 58.9296 21.6863 58.9083 21.5813Z" fill="black" fill-opacity="0.05"/>
<path d="M82.3594 5.56024H72.6047C71.6986 5.56024 70.9641 6.29475 70.9641 7.20087V8.61738H66.3895C65.4834 8.61738 64.7489 9.35189 64.7489 10.258V10.7302C62.0822 10.4974 61.2051 9.99173 58.7562 8.57948C56.8727 7.49339 54.0261 5.85195 48.8996 3.54703C48.8758 3.5362 48.8519 3.5262 48.8274 3.51668C47.1588 2.8601 42.7854 1.56827 38.1143 3.68517L31.5125 6.04898L25.9476 0.484313C25.307 -0.156351 24.2681 -0.156351 23.6275 0.484313L5.35778 18.7538C4.76683 19.3449 4.65346 20.3698 5.35778 21.0742L36.5767 52.2931C37.0763 52.7929 38.2461 52.944 38.8971 52.2931L55.5765 35.6139C56.0101 35.6513 56.4601 35.6715 56.9266 35.6715C61.2129 35.6715 65.0043 32.7311 67.1734 29.5263H82.3594C83.2655 29.5263 84 28.7918 84 27.8857V7.20087C84 6.29475 83.2655 5.56024 82.3594 5.56024ZM24.7874 3.96457L28.5267 7.70388C27.4152 8.3913 26.1301 8.75913 24.7874 8.75913C23.4445 8.75913 22.1596 8.39147 21.0481 7.70388L24.7874 3.96457ZM12.5775 23.6534L8.8382 19.9139L12.5775 16.1746C13.2649 17.2861 13.6328 18.5712 13.6328 19.9139C13.6328 21.2566 13.2651 22.5417 12.5775 23.6534ZM37.737 48.8127L33.9983 45.074C36.2809 43.6654 39.1927 43.6654 41.4755 45.074L37.737 48.8127ZM43.8393 42.7106C40.2138 40.0806 35.2601 40.0806 31.6347 42.7106L14.9412 26.0169C16.2223 24.2548 16.914 22.1383 16.914 19.9139C16.914 17.6894 16.2225 15.573 14.9412 13.8109L18.6846 10.0677C20.4466 11.3489 22.563 12.0405 24.7875 12.0405C27.0121 12.0405 29.1285 11.3489 30.8905 10.0677L34.439 13.6162C33.6733 13.7292 32.9267 13.9816 32.2304 14.3696C31.0544 15.0248 30.1317 16.0061 29.5572 17.1933C27.7065 17.536 25.9932 18.4319 24.6492 19.7758C21.0029 23.4222 21.0029 29.3552 24.6494 33.0017C26.4725 34.8247 28.8673 35.7364 31.2623 35.7364C33.6571 35.7364 36.0521 34.8249 37.8753 33.0017C39.0615 31.8155 39.8924 30.3576 40.3087 28.7689L45.8481 30.6488C45.2245 33.5377 45.8632 36.5768 47.586 38.9639L43.8393 42.7106ZM33.8646 26.5811C33.8791 26.5863 33.8935 26.5916 33.9081 26.5965L37.1887 27.71C36.941 28.8281 36.3804 29.8561 35.5551 30.6815C33.188 33.0483 29.3365 33.0486 26.9697 30.6815C24.6026 28.3146 24.6026 24.4632 26.9697 22.0961C27.5407 21.5248 28.2145 21.0784 28.9487 20.7757C29.2515 23.2961 31.0662 25.5426 33.8646 26.5811ZM49.95 36.5997C49.3167 35.5678 48.9584 34.39 48.9018 33.1879C49.6876 33.756 50.6481 34.3127 51.7952 34.7545L49.95 36.5997ZM64.7487 27.2316C63.1937 29.7808 60.1779 32.3899 56.9266 32.3899C56.3182 32.3899 55.7481 32.3466 55.2151 32.2695C55.2129 32.2691 55.2108 32.2688 55.2087 32.2685C51.6656 31.7538 49.7597 29.7401 49.1315 28.9428C49.098 28.8935 48.9554 28.707 48.9343 28.676C48.7431 28.3344 48.4298 28.0598 48.0301 27.9241L34.9858 23.4969C32.9042 22.7156 31.8038 20.9331 32.3082 19.1553C32.3085 19.1541 32.3088 19.153 32.3091 19.1518C32.3096 19.1505 32.31 19.149 32.3103 19.1477C32.5447 18.3291 33.0832 17.65 33.8274 17.2354C34.5666 16.8235 35.4212 16.7213 36.2363 16.9472L50.9352 21.6051C51.7991 21.8792 52.7211 21.4005 52.9948 20.5367C53.2685 19.6729 52.7902 18.7509 51.9264 18.477L40.2362 14.7725L40.1341 14.6705C40.1331 14.6695 40.1321 14.6683 40.131 14.6674L34.0787 8.61509L39.2808 6.75232C39.2984 6.74592 39.32 6.73788 39.3374 6.73083C39.3418 6.72902 39.3504 6.72574 39.3546 6.72394C39.377 6.71491 39.3989 6.7054 39.4208 6.69539C42.9376 5.07905 46.2805 6.04652 47.5909 6.5561C52.5428 8.78423 55.1859 10.3082 57.1169 11.4217C59.8016 12.97 61.0952 13.716 64.7487 14.0177V27.2316ZM70.9641 26.2447H68.0301V11.8986H70.9641V26.2447ZM80.7187 26.2447H74.2453V8.84149H80.7187V26.2447Z" fill="black" fill-opacity="0.05"/>
</svg>
