<svg width="84" height="84" viewBox="0 0 84 84" fill="none" xmlns="http://www.w3.org/2000/svg">
<g clip-path="url(#clip0)">
<path d="M26.9192 21.0291C19.1614 21.0291 12.8499 27.3405 12.8499 35.0986C12.8499 42.8566 19.1612 49.1681 26.9192 49.1681C34.6772 49.1681 40.9887 42.8566 40.9887 35.0986C40.9887 27.3405 34.6771 21.0291 26.9192 21.0291ZM26.9192 45.8745C20.9775 45.8745 16.1438 41.0404 16.1438 35.0989C16.1438 29.1572 20.9777 24.3233 26.9192 24.3233C32.8611 24.3233 37.6948 29.1572 37.6948 35.0989C37.6948 41.0404 32.8609 45.8745 26.9192 45.8745Z" fill="black" fill-opacity="0.05"/>
<path d="M27.7799 33.5915V30.8408C28.9564 30.9351 29.3004 31.5379 29.8979 31.5379C30.6945 31.5379 31.0203 30.5019 31.0203 29.9931C31.0203 28.6932 28.9021 28.3918 27.7796 28.3541V27.8831C27.7796 27.6193 27.4355 27.3743 27.0915 27.3743C26.6933 27.3743 26.4036 27.6193 26.4036 27.8831V28.4105C24.4847 28.6932 22.783 29.8425 22.783 32.2352C22.783 34.6466 24.7382 35.4567 26.4036 36.1159V39.168C25.064 38.923 24.4483 37.8115 23.6882 37.8115C23.0001 37.8115 22.4569 38.7534 22.4569 39.394C22.4569 40.5997 24.2312 41.7679 26.4036 41.8432H26.4037V42.314C26.4037 42.5778 26.6935 42.8228 27.0916 42.8228C27.4357 42.8228 27.7797 42.5778 27.7797 42.314V41.7677C29.8978 41.4099 31.3461 39.9966 31.3461 37.6606C31.3463 35.1176 29.4272 34.232 27.7799 33.5915ZM26.5847 33.1393C25.8968 32.8379 25.4261 32.4987 25.4261 31.9523C25.4261 31.5002 25.77 31.0669 26.5847 30.8974V33.1393ZM27.5986 39.1493V36.6247C28.2503 36.9449 28.7031 37.3408 28.7031 37.9623C28.7029 38.6405 28.214 38.9985 27.5986 39.1493Z" fill="black" fill-opacity="0.05"/>
<path d="M82.3531 61.624H76.1452V13.7611C76.1452 10.8193 73.752 8.42609 70.8102 8.42609H5.33498C2.39334 8.42609 0 10.8191 0 13.7611V68.7707C0 72.5219 3.05189 75.5741 6.80318 75.5741H77.1968C80.9481 75.5741 84.0002 72.5222 84.0002 68.7707V63.2709C84 62.3613 83.2627 61.624 82.3531 61.624ZM3.29388 13.7611C3.29388 12.6356 4.20952 11.7198 5.33515 11.7198H70.8104C71.9358 11.7198 72.8516 12.6354 72.8516 13.7611V61.624H68.6726V17.5458C68.6726 16.6364 67.9352 15.899 67.0258 15.899H9.11991C8.21034 15.899 7.47305 16.6364 7.47305 17.5458V61.624H3.29388V13.7611ZM59.9686 56.1163H15.4599C14.5504 56.1163 13.8131 56.8537 13.8131 57.7631V61.6238H10.7668V19.1929H65.3784V61.6242H61.6155V57.7635C61.6155 56.8537 60.8782 56.1163 59.9686 56.1163ZM58.3216 59.4103V61.6242H17.1068V59.4103H58.3216ZM80.7061 68.7707C80.7061 70.7059 79.1318 72.2802 77.1967 72.2802H6.80318C4.86823 72.2802 3.29388 70.7059 3.29388 68.7707V64.9177H80.7061V68.7707Z" fill="black" fill-opacity="0.05"/>
<path d="M62.3103 34.4225L54.1451 21.9265C53.8409 21.461 53.3224 21.1805 52.7664 21.1805C52.2104 21.1805 51.692 21.4612 51.3878 21.9265L43.2226 34.4225C42.8917 34.9286 42.8651 35.5753 43.1527 36.107C43.4405 36.6388 43.9965 36.9702 44.6012 36.9702H47.3668V44.6514C47.3668 45.5608 48.1041 46.2983 49.0137 46.2983H56.5195C57.4289 46.2983 58.1664 45.5608 58.1664 44.6514V36.9702H60.9317C61.5364 36.9703 62.0924 36.6389 62.3802 36.107C62.6679 35.5753 62.6412 34.9288 62.3103 34.4225ZM56.5194 33.6765C55.6098 33.6765 54.8725 34.4138 54.8725 35.3233V43.0046H50.6605V36.9702H51.1786C52.088 36.9702 52.8255 36.2327 52.8255 35.3233C52.8255 34.4138 52.088 33.6765 51.1786 33.6765H47.6446L52.7664 25.838L57.8883 33.6765H56.5194Z" fill="black" fill-opacity="0.05"/>
<path d="M52.0295 51.8108C52.0081 51.7071 51.977 51.6032 51.9358 51.503C51.8946 51.4041 51.8434 51.3086 51.7842 51.2195C51.725 51.1289 51.6557 51.0449 51.5799 50.9691C51.5041 50.8933 51.4201 50.8243 51.3294 50.7632C51.2405 50.704 51.1452 50.6528 51.0446 50.6116C50.9458 50.5705 50.842 50.5391 50.7367 50.5178C50.5242 50.475 50.3068 50.475 50.0927 50.5178C49.989 50.5391 49.8852 50.5705 49.7848 50.6116C49.686 50.6528 49.5904 50.7039 49.5014 50.7632C49.4109 50.8241 49.3269 50.8933 49.2511 50.9691C49.1751 51.0449 49.106 51.1289 49.0452 51.2195C48.9859 51.3084 48.9346 51.4039 48.8936 51.503C48.8524 51.6032 48.8212 51.7071 48.7999 51.8108C48.7787 51.9178 48.7686 52.0267 48.7686 52.1338C48.7686 52.2406 48.7784 52.3494 48.7999 52.4547C48.8214 52.5601 48.8524 52.6639 48.8936 52.7627C48.9348 52.8631 48.9859 52.9587 49.0452 53.0477C49.1059 53.1382 49.1751 53.2222 49.2511 53.298C49.3269 53.3738 49.4109 53.4429 49.5014 53.5023C49.5904 53.5615 49.6858 53.6127 49.7848 53.6539C49.8852 53.695 49.989 53.7264 50.0927 53.7477C50.1998 53.769 50.3086 53.7807 50.4156 53.7807C50.5229 53.7807 50.6315 53.769 50.7368 53.7477C50.8421 53.7262 50.9458 53.695 51.0448 53.6539C51.1452 53.6127 51.2407 53.5617 51.3296 53.5023C51.4203 53.443 51.5043 53.3738 51.5801 53.298C51.6559 53.2221 51.725 53.1382 51.7844 53.0477C51.8434 52.9587 51.8948 52.8632 51.936 52.7627C51.9771 52.6641 52.0083 52.5602 52.0296 52.4547C52.0511 52.3496 52.0626 52.2406 52.0626 52.1338C52.0624 52.0267 52.0511 51.9179 52.0295 51.8108Z" fill="black" fill-opacity="0.05"/>
<path d="M43.847 50.4861H25.0128C24.1032 50.4861 23.3659 51.2236 23.3659 52.133C23.3659 53.0424 24.1032 53.7799 25.0128 53.7799H43.8468C44.7564 53.7799 45.4937 53.0424 45.4937 52.133C45.4939 51.2238 44.7564 50.4861 43.847 50.4861Z" fill="black" fill-opacity="0.05"/>
</g>
<defs>
<clipPath id="clip0">
<rect width="84" height="84" fill="white"/>
</clipPath>
</defs>
</svg>
